<svg fill="#7E3CB0" width="26" height="26" viewBox="0 0 26 26" xmlns="http://www.w3.org/2000/svg">
<path d="M23.3971 14.0873V5.57132L17.9759 0.120972H3.08664V9.51799H0V22.5408C0 24.3815 1.49749 25.8791 3.33826 25.8791H22.6012C24.4753 25.8791 26 24.3544 26 22.4803V14.0873H23.3971ZM18.4409 2.84549L20.687 5.10373H18.4409V2.84549ZM3.33826 24.2874C2.37514 24.2874 1.59164 23.5039 1.59164 22.5408V11.1096H6.87162L10.4793 14.2023H19.2024V22.4802C19.2024 22.5328 19.204 22.5849 19.2064 22.6369C19.207 22.6506 19.2078 22.6642 19.2086 22.6778C19.2111 22.7207 19.2144 22.7633 19.2184 22.8058C19.2193 22.8155 19.22 22.8254 19.221 22.8351C19.2263 22.8859 19.2328 22.9363 19.2403 22.9865C19.2419 22.9978 19.244 23.009 19.2458 23.0204C19.2523 23.0608 19.2595 23.101 19.2674 23.141C19.2699 23.1539 19.2724 23.1668 19.275 23.1796C19.2854 23.2288 19.2965 23.2777 19.309 23.326C19.3101 23.3307 19.3116 23.3353 19.3128 23.3399C19.3243 23.3839 19.3368 23.4275 19.35 23.4709C19.3541 23.484 19.3582 23.4971 19.3623 23.5101C19.3752 23.5505 19.3888 23.5906 19.4031 23.6305C19.4058 23.6378 19.4082 23.6453 19.4109 23.6527C19.4279 23.6989 19.4461 23.7445 19.4651 23.7897C19.4698 23.8011 19.4749 23.8124 19.4797 23.8238C19.4953 23.8599 19.5116 23.8957 19.5284 23.9312C19.5335 23.9422 19.5386 23.9531 19.5439 23.9639C19.5653 24.008 19.5875 24.0515 19.6108 24.0944C19.6144 24.1011 19.6182 24.1075 19.6218 24.1141C19.6421 24.1511 19.6632 24.1876 19.6848 24.2236C19.6916 24.2349 19.6983 24.2461 19.7052 24.2572C19.7114 24.2673 19.7173 24.2776 19.7236 24.2876H3.33826V24.2874ZM11.0681 12.6107L7.46043 9.51804H4.67827V1.71256H16.8493V6.69531H21.8054V21.826H20.794V12.6107H11.0681ZM24.4084 22.4803C24.4084 23.4767 23.5977 24.2875 22.6013 24.2875C22.4456 24.2875 22.2944 24.2677 22.1502 24.2305C21.689 24.1116 21.2985 23.8146 21.0567 23.4176H23.3971V15.6789H24.4085V22.4803H24.4084Z"/>
<path d="M14.4142 3.8363H6.84766V5.42789H14.4142V3.8363Z" />
<path d="M14.4142 6.828H6.84766V8.41959H14.4142V6.828Z" />
</svg>
