<svg width="26" height="26" viewBox="0 0 26 26" fill="none" xmlns="http://www.w3.org/2000/svg">
<path d="M17.8983 11.1719C17.8983 10.6109 17.4436 10.1562 16.8827 10.1562H6.42175C5.86082 10.1562 5.40613 10.6109 5.40613 11.1719C5.40613 11.7328 5.86082 12.1875 6.42175 12.1875H16.8827C17.4436 12.1875 17.8983 11.7328 17.8983 11.1719Z" fill="#4B5457"/>
<path d="M6.42175 14.2188C5.86082 14.2188 5.40613 14.6734 5.40613 15.2344C5.40613 15.7953 5.86082 16.25 6.42175 16.25H12.7751C13.336 16.25 13.7907 15.7953 13.7907 15.2344C13.7907 14.6734 13.336 14.2188 12.7751 14.2188H6.42175Z" fill="#4B5457"/>
<path d="M8.80845 23.9688H5.41174C4.29171 23.9688 3.38049 23.0575 3.38049 21.9375V4.0625C3.38049 2.94247 4.29171 2.03125 5.41174 2.03125H17.8983C19.0183 2.03125 19.9295 2.94247 19.9295 4.0625V10.3086C19.9295 10.8695 20.3842 11.3242 20.9452 11.3242C21.5061 11.3242 21.9608 10.8695 21.9608 10.3086V4.0625C21.9608 1.82244 20.1384 0 17.8983 0H5.41174C3.17168 0 1.34924 1.82244 1.34924 4.0625V21.9375C1.34924 24.1776 3.17168 26 5.41174 26H8.80845C9.36938 26 9.82408 25.5453 9.82408 24.9844C9.82408 24.4234 9.36938 23.9688 8.80845 23.9688Z" fill="#4B5457"/>
<path d="M23.7597 14.7048C22.5717 13.5168 20.6388 13.5168 19.4516 14.704L13.8757 20.2676C13.7572 20.3858 13.6699 20.5313 13.6212 20.6914L12.4069 24.6891C12.2993 25.0436 12.393 25.4285 12.6517 25.6936C12.8455 25.8922 13.1088 26 13.3788 26C13.4691 26 13.5603 25.9879 13.6498 25.9631L17.7491 24.8276C17.9178 24.7808 18.0716 24.6913 18.1955 24.5676L23.7598 19.0138C24.9477 17.8258 24.9477 15.8929 23.7597 14.7048ZM16.9495 22.9413L14.8872 23.5126L15.4908 21.5256L19.2531 17.7716L20.6897 19.2082L16.9495 22.9413ZM22.3242 17.5769L22.1274 17.7733L20.6911 16.3369L20.8872 16.1412C21.2832 15.7452 21.9275 15.7452 22.3235 16.1412C22.7195 16.5372 22.7195 17.1815 22.3242 17.5769Z" fill="#4B5457"/>
<path d="M16.8827 6.09375H6.42175C5.86082 6.09375 5.40613 6.54845 5.40613 7.10938C5.40613 7.6703 5.86082 8.125 6.42175 8.125H16.8827C17.4436 8.125 17.8983 7.6703 17.8983 7.10938C17.8983 6.54845 17.4436 6.09375 16.8827 6.09375Z" fill="#4B5457"/>
</svg>
