<svg fill="#7E3CB0" width="26" height="26" viewBox="0 0 26 26" xmlns="http://www.w3.org/2000/svg">
<g clip-path="url(#clip0)">
<path d="M23.2642 6.84119C22.7257 7.10171 22.5003 7.7497 22.7608 8.28792C23.4726 9.7582 23.8333 11.343 23.8333 13C23.8333 18.9734 18.9734 23.8333 13 23.8333C7.02659 23.8333 2.16667 18.9734 2.16667 13C2.16667 7.02659 7.02659 2.16667 13 2.16667C15.4753 2.16667 17.8007 2.97494 19.7253 4.50393C20.1922 4.87659 20.8748 4.79856 21.2475 4.33016C21.6201 3.86202 21.5421 3.18018 21.0734 2.80804C18.7949 0.997111 15.9276 0 13 0C5.83217 0 0 5.83217 0 13C0 20.1678 5.83217 26 13 26C20.1678 26 26 20.1678 26 13C26 11.0137 25.5662 9.11021 24.7109 7.3445C24.4509 6.80495 23.8008 6.58014 23.2642 6.84119Z"/>
<path d="M13 4.33331C12.402 4.33331 11.9166 4.81864 11.9166 5.41665V13C11.9166 13.598 12.402 14.0833 13 14.0833H18.4166C19.0146 14.0833 19.5 13.598 19.5 13C19.5 12.402 19.0146 11.9166 18.4166 11.9166H14.0833V5.41665C14.0833 4.81864 13.598 4.33331 13 4.33331Z" />
</g>
<defs>
<clipPath id="clip0">
<rect width="26" height="26"/>
</clipPath>
</defs>
</svg>
