<svg fill="#7E3CB0" width="26" height="26" viewBox="0 0 26 26" xmlns="http://www.w3.org/2000/svg">
<path d="M22.3818 6.01936L16.883 0.52066C16.5473 0.184895 16.101 0 15.6262 0H4.875C3.89497 0 3.09766 0.797316 3.09766 1.77734V24.2227C3.09766 25.2027 3.89497 26 4.875 26H21.125C22.105 26 22.9023 25.2027 22.9023 24.2227V7.27614C22.9023 6.80149 22.7175 6.35517 22.3818 6.01936ZM20.3017 6.09375H17.0625C16.9225 6.09375 16.8086 5.97985 16.8086 5.83984V2.60071L20.3017 6.09375ZM21.125 24.4766H4.875C4.735 24.4766 4.62109 24.3627 4.62109 24.2227V1.77734C4.62109 1.63734 4.735 1.52344 4.875 1.52344H15.2852V5.83984C15.2852 6.81987 16.0825 7.61719 17.0625 7.61719H21.3789V24.2227C21.3789 24.3627 21.265 24.4766 21.125 24.4766Z" />
<path d="M13.8176 11.6289H18.6708C19.0915 11.6289 19.4326 11.2879 19.4326 10.8672C19.4326 10.4465 19.0915 10.1055 18.6708 10.1055H13.8176C13.397 10.1055 13.0559 10.4465 13.0559 10.8672C13.0559 11.2879 13.3969 11.6289 13.8176 11.6289Z"/>
<path d="M13.8176 16.707H18.6708C19.0915 16.707 19.4326 16.366 19.4326 15.9453C19.4326 15.5246 19.0915 15.1836 18.6708 15.1836H13.8176C13.397 15.1836 13.0559 15.5246 13.0559 15.9453C13.0559 16.366 13.3969 16.707 13.8176 16.707Z" />
<path d="M18.6926 20.2617H13.8176C13.397 20.2617 13.0559 20.6028 13.0559 21.0234C13.0559 21.4441 13.397 21.7852 13.8176 21.7852H18.6926C19.1133 21.7852 19.4543 21.4441 19.4543 21.0234C19.4543 20.6028 19.1133 20.2617 18.6926 20.2617Z" />
<path d="M10.017 8.79311L8.26033 10.5497L7.84611 10.1355C7.54868 9.83799 7.06636 9.83799 6.76888 10.1355C6.47141 10.4329 6.47141 10.9152 6.76888 11.2127L7.72174 12.1655C7.87048 12.3143 8.06543 12.3887 8.26033 12.3887C8.45523 12.3887 8.65023 12.3143 8.79892 12.1655L11.0941 9.87034C11.3916 9.57286 11.3916 9.09059 11.0941 8.79311C10.7967 8.49564 10.3144 8.49564 10.017 8.79311Z" />
<path d="M10.017 14.2591L8.26033 16.0157L7.84611 15.6015C7.54868 15.304 7.06636 15.304 6.76888 15.6015C6.47141 15.8989 6.47141 16.3812 6.76888 16.6787L7.72174 17.6315C7.87048 17.7802 8.06543 17.8546 8.26033 17.8546C8.45523 17.8546 8.65023 17.7802 8.79892 17.6314L11.0941 15.3362C11.3916 15.0388 11.3916 14.5565 11.0941 14.259C10.7967 13.9616 10.3144 13.9616 10.017 14.2591Z" />
<path d="M10.017 19.3372L8.26033 21.0938L7.84611 20.6796C7.54868 20.3822 7.06636 20.3821 6.76888 20.6796C6.47141 20.9771 6.47141 21.4593 6.76888 21.7568L7.72174 22.7096C7.87048 22.8584 8.06543 22.9327 8.26033 22.9327C8.45523 22.9327 8.65023 22.8584 8.79892 22.7096L11.0941 20.4144C11.3916 20.1169 11.3916 19.6346 11.0941 19.3371C10.7967 19.0397 10.3144 19.0397 10.017 19.3372Z" />
</svg>
