<svg width="26" height="26" viewBox="0 0 26 26" fill="none" xmlns="http://www.w3.org/2000/svg">
<path d="M26 13C26 20.1798 20.1798 26 13 26C5.82021 26 0 20.1798 0 13C0 5.82021 5.82021 0 13 0C20.1798 0 26 5.82021 26 13Z" fill="url(#paint0_linear)"/>
<path d="M8.40112 19.5504C8.09068 19.5504 7.83797 19.2978 7.83797 18.9874V7.73558C7.83797 7.42514 8.09068 7.17242 8.40112 7.17242H9.37985V9.6976H15.9253V7.17242H16.8719C17.1825 7.17242 17.435 7.42514 17.435 7.73558V13.2451L18.866 14.6367V7.73558C18.866 6.63605 17.9716 5.74142 16.8719 5.74142H14.5139C14.2184 4.97455 13.4771 4.46277 12.6525 4.46277C11.8279 4.46277 11.0866 4.97435 10.7912 5.74142H8.40112C7.30159 5.74142 6.40717 6.63605 6.40717 7.73558V18.9874C6.40717 20.0869 7.30159 20.9814 8.40112 20.9814H16.4244L14.9531 19.5504H8.40112ZM12.0895 7.17242V6.45692C12.0895 6.14648 12.342 5.89377 12.6525 5.89377C12.9631 5.89377 13.2156 6.14648 13.2156 6.45692V7.17242H14.4943V8.2666H10.8109V7.17242H12.0895Z" fill="white"/>
<path d="M16.4412 13.8498C16.1865 13.5961 15.8715 13.4023 15.5305 13.2894L15.5014 13.2797L12.3325 12.5588L13.0423 15.7289L13.0542 15.7662C13.1678 16.1094 13.3628 16.4258 13.6189 16.682L18.089 21.0294L20.9131 18.1987L16.4412 13.8498ZM14.6278 15.667C14.6218 15.6613 14.6161 15.6553 14.6105 15.6492L15.4137 14.8464C15.4204 14.8529 15.4274 14.8595 15.4339 14.866L18.8765 18.2142L18.0738 19.0186L14.6278 15.667Z" fill="white"/>
<defs>
<linearGradient id="paint0_linear" x1="0" y1="26" x2="26" y2="0" gradientUnits="userSpaceOnUse">
<stop stop-color="#EDF200"/>
<stop offset="0.505208" stop-color="#FFE600"/>
<stop offset="1" stop-color="#FF8A00"/>
</linearGradient>
</defs>
</svg>
