<svg width="26" height="26" viewBox="0 0 26 26" fill="none" xmlns="http://www.w3.org/2000/svg">
<circle cx="13" cy="13" r="13" fill="url(#paint0_linear)"/>
<path d="M16.0381 18.946H16.388C16.3309 18.9803 16.2653 19 16.1973 19H9.80271C9.73411 19 9.66835 18.9801 9.6114 18.946H9.96186H16.0381ZM16.576 18.6555C16.5688 18.7231 16.5435 18.7853 16.5057 18.8377L16.5362 18.4897L17.3213 9.54303L17.3752 9.54775L16.576 18.6555ZM9.46377 18.4897L9.49443 18.8392C9.45672 18.7875 9.4317 18.7267 9.42474 18.6619L8.625 9.54775L8.67882 9.54303L9.46377 18.4897Z" fill="white" stroke="white"/>
<path d="M15.3108 8.54729H15.2567V7.55404V7.18397C15.291 7.24086 15.3108 7.30738 15.3108 7.37831V7.37836V8.54729ZM14.9324 7C15.0034 7 15.0699 7.01976 15.1268 7.05404H14.7567H11.2432H10.8732C10.9301 7.01976 10.9966 7 11.0676 7H14.9324ZM10.6892 7.37839C10.6892 7.30745 10.7089 7.24092 10.7432 7.18404V7.55404V8.54731H10.6892V7.37839Z" fill="white" stroke="white"/>
<path d="M7.37838 9.02026H18.6216C18.6366 9.02026 18.6487 9.03237 18.6487 9.0473C18.6487 9.06226 18.6366 9.07433 18.6216 9.07433H7.37838C7.36342 9.07433 7.35135 9.06226 7.35135 9.0473C7.35135 9.03234 7.36342 9.02026 7.37838 9.02026Z" fill="white" stroke="white"/>
<defs>
<linearGradient id="paint0_linear" x1="0" y1="26" x2="26" y2="0" gradientUnits="userSpaceOnUse">
<stop stop-color="#FFB800"/>
<stop offset="0.501963" stop-color="#FF0000"/>
<stop offset="1" stop-color="#A50000"/>
</linearGradient>
</defs>
</svg>
