<svg width="26" height="26" viewBox="0 0 26 26" fill="none" xmlns="http://www.w3.org/2000/svg">
<circle cx="13" cy="13" r="12.5" stroke="#4B5457"/>
<path d="M19.3982 13.6691V8.42853L16.0621 5.07446H6.89947V10.8572H5V18.8713C5 20.004 5.92153 20.9256 7.05431 20.9256H18.9084C20.0618 20.9256 21 19.9873 21 18.834V13.6691H19.3982ZM16.3483 6.75109L17.7305 8.14077H16.3483V6.75109ZM7.05431 19.9461C6.46162 19.9461 5.97947 19.4639 5.97947 18.8713V11.8367H9.22869L11.4488 13.7399H16.8169V18.834C16.8169 18.8663 16.8179 18.8984 16.8193 18.9304C16.8197 18.9389 16.8202 18.9472 16.8207 18.9556C16.8222 18.982 16.8242 19.0082 16.8267 19.0343C16.8273 19.0403 16.8277 19.0464 16.8283 19.0524C16.8316 19.0836 16.8356 19.1147 16.8402 19.1456C16.8412 19.1525 16.8424 19.1594 16.8436 19.1664C16.8476 19.1913 16.852 19.216 16.8568 19.2406C16.8584 19.2486 16.8599 19.2565 16.8616 19.2644C16.8679 19.2947 16.8748 19.3248 16.8824 19.3545C16.8832 19.3574 16.884 19.3602 16.8848 19.363C16.8919 19.3901 16.8996 19.417 16.9077 19.4436C16.9102 19.4517 16.9127 19.4597 16.9153 19.4678C16.9232 19.4926 16.9316 19.5173 16.9404 19.5418C16.942 19.5464 16.9435 19.551 16.9452 19.5555C16.9557 19.5839 16.9668 19.612 16.9785 19.6398C16.9814 19.6469 16.9845 19.6538 16.9875 19.6608C16.9971 19.683 17.0071 19.7051 17.0175 19.7269C17.0206 19.7336 17.0238 19.7404 17.027 19.7471C17.0402 19.7741 17.0539 19.801 17.0682 19.8274C17.0704 19.8315 17.0727 19.8354 17.075 19.8395C17.0875 19.8622 17.1004 19.8847 17.1138 19.9069C17.1179 19.9138 17.122 19.9207 17.1263 19.9275C17.1301 19.9337 17.1337 19.9401 17.1376 19.9462H7.05431V19.9461ZM11.8111 12.7605L9.59103 10.8573H7.87894V6.0539H15.3688V9.12021H18.4187V18.4314H17.7963V12.7605H11.8111ZM20.0206 18.834C20.0206 19.4472 19.5217 19.9461 18.9085 19.9461C18.8127 19.9461 18.7196 19.934 18.6309 19.9111C18.3471 19.8379 18.1068 19.6551 17.958 19.4108H19.3982V14.6486H20.0206V18.834H20.0206Z" fill="#4B5457"/>
<path d="M13.8702 7.36084H9.21391V8.34028H13.8702V7.36084Z" fill="#4B5457"/>
<path d="M13.8702 9.20184H9.21391V10.1813H13.8702V9.20184Z" fill="#4B5457"/>
</svg>
