<svg width="26" height="26" viewBox="0 0 26 26" fill="none" xmlns="http://www.w3.org/2000/svg">
<path d="M26 13C26 20.1798 20.1798 26 13 26C5.82021 26 0 20.1798 0 13C0 5.82021 5.82021 0 13 0C20.1798 0 26 5.82021 26 13Z" fill="url(#paint0_linear)"/>
<path d="M7.19625 14.5984C7.67828 13.7617 8.17696 12.8966 8.17696 11.5579V10.4917C8.17696 8.27792 9.96998 6.45258 12.175 6.42044H12.3089C14.5214 6.45277 16.3204 8.27812 16.3204 10.4917V11.5579C16.3204 12.3297 16.4819 13.0224 16.8284 13.7381C16.9599 14.0097 17.2317 14.168 17.5146 14.168C17.6258 14.168 17.7389 14.1434 17.846 14.0916C18.2245 13.9083 18.3828 13.4527 18.1995 13.074C17.9502 12.5592 17.8438 12.106 17.8438 11.5579V10.4917C17.8438 7.66776 15.7128 5.30405 12.9748 4.94421V3.95239C12.9748 3.53166 12.6338 3.19067 12.2131 3.19067C11.7925 3.19067 11.4514 3.53166 11.4514 3.95239V4.95215C8.74865 5.33777 6.65353 7.68799 6.65353 10.4917V11.5579C6.65353 12.489 6.31055 13.0843 5.87614 13.8379C5.44152 14.5923 4.94878 15.4474 4.70103 16.7697C4.58082 17.4108 4.75082 18.0662 5.16718 18.5679C5.58335 19.0691 6.1955 19.3566 6.84673 19.3566H10.0666C10.0938 20.537 11.0618 21.489 12.2486 21.489C13.4525 21.489 14.432 20.5097 14.432 19.3058C14.432 19.3022 14.4314 19.2988 14.4314 19.2955C14.7033 19.1792 14.894 18.9093 14.894 18.5948C14.894 18.1741 14.553 17.8331 14.1323 17.8331H6.84693C6.57755 17.8331 6.41351 17.6838 6.33952 17.5949C6.26553 17.5056 6.14849 17.3162 6.19848 17.0504C6.39843 15.983 6.80389 15.2792 7.19625 14.5984ZM12.2486 19.9655C11.902 19.9655 11.6176 19.6968 11.5914 19.3566H12.906C12.8798 19.6968 12.5953 19.9655 12.2486 19.9655Z" fill="white"/>
<path d="M22.1999 17.3001H20.2962V15.3962C20.2962 14.9757 19.955 14.6345 19.5345 14.6345C19.1138 14.6345 18.7728 14.9757 18.7728 15.3962V17.3001H16.8689C16.4482 17.3001 16.1072 17.6411 16.1072 18.0619C16.1072 18.4826 16.4482 18.8236 16.8689 18.8236H18.7728V20.7273C18.7728 21.148 19.1138 21.489 19.5345 21.489C19.955 21.489 20.2962 21.148 20.2962 20.7273V18.8236H22.1999C22.6207 18.8236 22.9617 18.4826 22.9617 18.0619C22.9617 17.6411 22.6207 17.3001 22.1999 17.3001Z" fill="white"/>
<defs>
<linearGradient id="paint0_linear" x1="0" y1="26" x2="26" y2="0" gradientUnits="userSpaceOnUse">
<stop stop-color="#FFE600"/>
<stop offset="0.510417" stop-color="#FF8A00"/>
<stop offset="1" stop-color="#FF1F00"/>
</linearGradient>
</defs>
</svg>
