<svg width="26" height="26" viewBox="0 0 26 26" fill="none" xmlns="http://www.w3.org/2000/svg">
<circle cx="13" cy="13" r="12.5" stroke="#4B5457"/>
<path d="M12.9186 10.4498L11.6875 11.6809L11.2377 11.2311C11.0547 11.048 10.7578 11.048 10.5748 11.2311C10.3917 11.4141 10.3917 11.7109 10.5748 11.894L11.356 12.6752C11.4476 12.7668 11.5675 12.8125 11.6875 12.8125C11.8075 12.8125 11.9274 12.7668 12.0189 12.6752L13.5814 11.1127C13.7645 10.9296 13.7645 10.6329 13.5814 10.4498C13.3984 10.2667 13.1016 10.2667 12.9186 10.4498Z" fill="#4B5457"/>
<path d="M12.9186 13.4967L11.6875 14.7277L11.2377 14.2779C11.0547 14.0949 10.7578 14.0949 10.5748 14.2779C10.3917 14.461 10.3917 14.7578 10.5748 14.9409L11.356 15.7221C11.4476 15.8136 11.5675 15.8594 11.6875 15.8594C11.8074 15.8594 11.9274 15.8137 12.0189 15.7221L13.5814 14.1596C13.7645 13.9765 13.7645 13.6798 13.5814 13.4967C13.3984 13.3136 13.1016 13.3136 12.9186 13.4967Z" fill="#4B5457"/>
<path d="M12.9186 16.5436L11.6875 17.7746L11.2377 17.3248C11.0547 17.1418 10.7578 17.1418 10.5748 17.3248C10.3917 17.5079 10.3917 17.8047 10.5748 17.9877L11.356 18.769C11.4476 18.8605 11.5675 18.9063 11.6875 18.9063C11.8075 18.9063 11.9274 18.8605 12.0189 18.7689L13.5814 17.2064C13.7645 17.0234 13.7645 16.7266 13.5814 16.5435C13.3984 16.3605 13.1016 16.3605 12.9186 16.5436Z" fill="#4B5457"/>
<path d="M22.3002 12.5818L20.5325 10.814C20.3494 10.631 20.0526 10.631 19.8696 10.814L19.1875 11.496V7.5625C19.1875 7.30363 18.9776 7.09375 18.7188 7.09375H16.0625V6.46875C16.0625 6.20987 15.8526 6 15.5938 6H14.8125V5.46875C14.8125 5.20987 14.6026 5 14.3438 5H11.8438C11.5849 5 11.375 5.20987 11.375 5.46875V6H10.5938C10.3349 6 10.125 6.20987 10.125 6.46875V7.09375H7.46875C7.20988 7.09375 7 7.30363 7 7.5625V20.5312C7 20.7901 7.20988 21 7.46875 21H18.7188C18.9776 21 19.1875 20.7901 19.1875 20.5312V16.3574L22.3002 13.2447C22.4833 13.0616 22.4833 12.7648 22.3002 12.5818ZM11.0625 6.9375H11.8438C12.1026 6.9375 12.3125 6.72763 12.3125 6.46875V5.9375H13.875V6.46875C13.875 6.72763 14.0849 6.9375 14.3438 6.9375H15.125V8.1875H11.0625V6.9375ZM18.25 20.0625H7.9375V8.03125H10.125V8.65625C10.125 8.91512 10.3349 9.125 10.5938 9.125H15.5938C15.8526 9.125 16.0625 8.91512 16.0625 8.65625V8.03125H18.25V12.4335L15.2292 15.4544V15.4546C15.1786 15.5052 15.1393 15.5675 15.1159 15.6376L14.232 18.2893C14.1759 18.4577 14.2197 18.6434 14.3453 18.7689C14.4346 18.8583 14.5544 18.9062 14.6768 18.9062C14.7263 18.9062 14.7764 18.8984 14.8249 18.8822L17.4766 17.9983C17.5467 17.9749 17.6089 17.9357 17.6596 17.8851H17.6598L18.25 17.2949V20.0625ZM16.4606 17.3488L15.4178 17.6964L15.7654 16.6536L16.4606 17.3488ZM18.3873 15.8317C18.3873 15.8317 18.3873 15.8318 18.3873 15.8318L17.3284 16.8907L16.2236 15.7858L20.201 11.8084L21.3059 12.9132L18.3873 15.8317Z" fill="#4B5457"/>
<path d="M9.34375 12.6562C9.60263 12.6562 9.8125 12.4464 9.8125 12.1875C9.8125 11.9286 9.60263 11.7188 9.34375 11.7188C9.08487 11.7188 8.875 11.9286 8.875 12.1875C8.875 12.4464 9.08487 12.6562 9.34375 12.6562Z" fill="#4B5457"/>
<path d="M9.34375 15.7031C9.60263 15.7031 9.8125 15.4933 9.8125 15.2344C9.8125 14.9755 9.60263 14.7656 9.34375 14.7656C9.08487 14.7656 8.875 14.9755 8.875 15.2344C8.875 15.4933 9.08487 15.7031 9.34375 15.7031Z" fill="#4B5457"/>
<path d="M9.34375 18.75C9.60263 18.75 9.8125 18.5401 9.8125 18.2812C9.8125 18.0224 9.60263 17.8125 9.34375 17.8125C9.08487 17.8125 8.875 18.0224 8.875 18.2812C8.875 18.5401 9.08487 18.75 9.34375 18.75Z" fill="#4B5457"/>
</svg>
