<svg width="26" height="26" viewBox="0 0 26 26" fill="none" xmlns="http://www.w3.org/2000/svg">
<circle cx="13" cy="13" r="12.5" stroke="#4B5457"/>
<path d="M17.0143 11.875C17.0143 11.5298 16.7345 11.25 16.3893 11.25H9.95183C9.60665 11.25 9.32684 11.5298 9.32684 11.875C9.32684 12.2202 9.60665 12.5 9.95183 12.5H16.3893C16.7345 12.5 17.0143 12.2202 17.0143 11.875Z" fill="#4B5457"/>
<path d="M9.95184 13.75C9.60665 13.75 9.32684 14.0298 9.32684 14.375C9.32684 14.7202 9.60665 15 9.95184 15H13.8616C14.2068 15 14.4866 14.7202 14.4866 14.375C14.4866 14.0298 14.2068 13.75 13.8616 13.75H9.95184Z" fill="#4B5457"/>
<path d="M11.4206 19.75H9.33031C8.64106 19.75 8.08031 19.1893 8.08031 18.5V7.5C8.08031 6.81075 8.64106 6.25 9.33031 6.25H17.0143C17.7036 6.25 18.2643 6.81075 18.2643 7.5V11.3438C18.2643 11.6889 18.5442 11.9688 18.8893 11.9688C19.2345 11.9688 19.5143 11.6889 19.5143 11.3438V7.5C19.5143 6.1215 18.3928 5 17.0143 5H9.33031C7.95181 5 6.83031 6.1215 6.83031 7.5V18.5C6.83031 19.8785 7.95181 21 9.33031 21H11.4206C11.7658 21 12.0456 20.7202 12.0456 20.375C12.0456 20.0298 11.7658 19.75 11.4206 19.75Z" fill="#4B5457"/>
<path d="M20.6214 14.0491C19.8903 13.318 18.7008 13.318 17.9702 14.0486L14.5389 17.4724C14.466 17.5451 14.4122 17.6346 14.3823 17.7331L13.635 20.1933C13.5688 20.4114 13.6265 20.6483 13.7857 20.8114C13.9049 20.9336 14.0669 21 14.2331 21C14.2887 21 14.3448 20.9925 14.3999 20.9773L16.9226 20.2785C17.0264 20.2497 17.121 20.1946 17.1972 20.1185L20.6214 16.7008C21.3525 15.9697 21.3525 14.7802 20.6214 14.0491ZM16.4305 19.1177L15.1614 19.4693L15.5328 18.2465L17.8481 15.9364L18.7321 16.8204L16.4305 19.1177ZM19.738 15.8165L19.6169 15.9374L18.733 15.0535L18.8536 14.933C19.0973 14.6894 19.4938 14.6894 19.7375 14.933C19.9812 15.1767 19.9812 15.5732 19.738 15.8165Z" fill="#4B5457"/>
<path d="M16.3893 8.75H9.95183C9.60665 8.75 9.32684 9.02981 9.32684 9.375C9.32684 9.72019 9.60665 10 9.95183 10H16.3893C16.7345 10 17.0143 9.72019 17.0143 9.375C17.0143 9.02981 16.7345 8.75 16.3893 8.75Z" fill="#4B5457"/>
</svg>
