<svg width="26" height="26" viewBox="0 0 26 26" fill="none" xmlns="http://www.w3.org/2000/svg">
<circle cx="13" cy="13" r="12.5" stroke="#4B5457"/>
<path d="M13 5C8.589 5 5 8.589 5 13C5 17.411 8.589 21 13 21C17.411 21 21 17.411 21 13C21 8.589 17.411 5 13 5ZM13.5 19.975V18.5C13.5 18.224 13.276 18 13 18C12.724 18 12.5 18.224 12.5 18.5V19.975C9.04 19.728 6.272 16.961 6.025 13.5H7.5C7.776 13.5 8 13.276 8 13C8 12.724 7.776 12.5 7.5 12.5H6.025C6.272 9.039 9.04 6.272 12.5 6.025V7.5C12.5 7.776 12.724 8 13 8C13.276 8 13.5 7.776 13.5 7.5V6.025C16.96 6.271 19.728 9.039 19.975 12.5H18.5C18.224 12.5 18 12.724 18 13C18 13.276 18.224 13.5 18.5 13.5H19.975C19.728 16.961 16.96 19.728 13.5 19.975Z" fill="#4B5457"/>
<path d="M16.853 9.14701C16.704 8.99801 16.478 8.95801 16.286 9.04801L11.536 11.298C11.529 11.302 11.527 11.311 11.52 11.314C11.477 11.337 11.433 11.36 11.396 11.396C11.36 11.433 11.338 11.476 11.315 11.519C11.311 11.526 11.301 11.529 11.298 11.536L9.048 16.286C8.958 16.477 8.997 16.704 9.147 16.853C9.242 16.949 9.37 17 9.5 17C9.572 17 9.646 16.984 9.714 16.952L14.464 14.702C14.471 14.698 14.473 14.689 14.48 14.686C14.523 14.663 14.567 14.64 14.604 14.604C14.64 14.567 14.662 14.524 14.685 14.481C14.689 14.474 14.699 14.471 14.702 14.464L16.952 9.71401C17.042 9.52301 17.003 9.29601 16.853 9.14701ZM10.551 15.449L11.898 12.605L13.395 14.102L10.551 15.449ZM14.102 13.395L12.605 11.898L15.449 10.551L14.102 13.395Z" fill="#4B5457"/>
</svg>
