<svg width="26" height="26" viewBox="0 0 26 26" fill="none" xmlns="http://www.w3.org/2000/svg">
<circle cx="13" cy="13" r="13" fill="url(#paint0_linear)"/>
<path d="M19.3085 7.35301V6.692C19.3085 5.75902 18.5495 5 17.6165 5H12.9108C12.4588 5 12.0339 5.17601 11.7143 5.49562L5.05916 12.1508C4.73955 12.4704 4.56354 12.8953 4.56354 13.3473C4.56354 13.7992 4.73955 14.2241 5.05916 14.5437L5.73541 15.22C5.70675 15.3443 5.69158 15.4726 5.69158 15.6033C5.69158 16.0552 5.86759 16.4801 6.1872 16.7997L10.8928 21.5053C11.2227 21.8351 11.656 22 12.0893 22C12.5225 22 12.9558 21.8351 13.2857 21.5052L19.9409 14.85C20.2605 14.5304 20.4365 14.1055 20.4365 13.6535V8.94798C20.4365 8.21273 19.9649 7.58583 19.3085 7.35301ZM5.85677 13.7461C5.75025 13.6396 5.69155 13.4979 5.69155 13.3472C5.69155 13.1966 5.75025 13.055 5.85677 12.9484L12.512 6.2932C12.6185 6.18671 12.7601 6.12801 12.9108 6.12801H17.6165C17.9275 6.12801 18.1805 6.38102 18.1805 6.692V7.25599H14.0388C13.5868 7.25599 13.1619 7.432 12.8423 7.75161L6.35239 14.2416L5.85677 13.7461ZM19.1433 14.0524L12.4881 20.7076C12.2681 20.9275 11.9103 20.9275 11.6905 20.7076L6.98478 16.0021C6.87826 15.8955 6.81956 15.7539 6.81956 15.6032C6.81956 15.4525 6.87826 15.311 6.98478 15.2044L13.64 8.54915C13.7465 8.44267 13.8881 8.38396 14.0388 8.38396H18.7445C19.0555 8.38396 19.3085 8.63697 19.3085 8.94795V13.6535H19.3085C19.3085 13.8042 19.2498 13.9458 19.1433 14.0524Z" fill="white"/>
<path d="M16.4885 9.51202C15.5555 9.51202 14.7965 10.271 14.7965 11.204C14.7965 12.137 15.5555 12.896 16.4885 12.896C17.4215 12.896 18.1805 12.137 18.1805 11.204C18.1805 10.271 17.4215 9.51202 16.4885 9.51202ZM16.4885 11.768C16.1775 11.768 15.9245 11.515 15.9245 11.2041C15.9245 10.8931 16.1775 10.6401 16.4885 10.6401C16.7995 10.6401 17.0525 10.8931 17.0525 11.2041C17.0525 11.515 16.7995 11.768 16.4885 11.768Z" fill="white"/>
<defs>
<linearGradient id="paint0_linear" x1="0" y1="26" x2="26" y2="0" gradientUnits="userSpaceOnUse">
<stop stop-color="#12D5F0"/>
<stop offset="0.526042" stop-color="#0060B8"/>
<stop offset="1" stop-color="#2300AE"/>
</linearGradient>
</defs>
</svg>
