<svg width="15" height="18" viewBox="0 0 15 18" fill="none" xmlns="http://www.w3.org/2000/svg">
<path d="M2.40112 15.5504C2.09068 15.5504 1.83797 15.2978 1.83797 14.9874V3.73558C1.83797 3.42514 2.09068 3.17242 2.40112 3.17242H3.37985V5.6976H9.92528V3.17242H10.8719C11.1825 3.17242 11.435 3.42514 11.435 3.73558V9.24515L12.866 10.6367V3.73558C12.866 2.63605 11.9716 1.74142 10.8719 1.74142H8.51392C8.21835 0.974548 7.47707 0.462769 6.65247 0.462769C5.82787 0.462769 5.08658 0.97435 4.79121 1.74142H2.40112C1.30159 1.74142 0.407166 2.63605 0.407166 3.73558V14.9874C0.407166 16.0869 1.30159 16.9814 2.40112 16.9814H10.4244L8.95309 15.5504H2.40112ZM6.08951 3.17242V2.45692C6.08951 2.14648 6.34203 1.89377 6.65247 1.89377C6.9631 1.89377 7.21562 2.14648 7.21562 2.45692V3.17242H8.49428V4.2666H4.81085V3.17242H6.08951Z" fill="white"/>
<path d="M10.4412 9.84979C10.1865 9.59608 9.87152 9.40228 9.53053 9.28941L9.50137 9.27969L6.3325 8.55884L7.04225 11.7289L7.05415 11.7662C7.16782 12.1094 7.36281 12.4258 7.6189 12.682L12.089 17.0294L14.9131 14.1987L10.4412 9.84979ZM8.62778 11.667C8.62183 11.6613 8.61607 11.6553 8.61052 11.6492L9.4137 10.8464C9.42044 10.8529 9.42738 10.8595 9.43393 10.866L12.8765 14.2142L12.0738 15.0186L8.62778 11.667Z" fill="white"/>
</svg>
