<svg width="19" height="19" viewBox="0 0 19 19" fill="none" xmlns="http://www.w3.org/2000/svg">
<path d="M3.19625 11.5984C3.67828 10.7617 4.17696 9.89664 4.17696 8.55788V7.49167C4.17696 5.27792 5.96998 3.45258 8.175 3.42044H8.30889C10.5214 3.45277 12.3204 5.27812 12.3204 7.49167V8.55788C12.3204 9.32971 12.4819 10.0224 12.8284 10.7381C12.9599 11.0097 13.2317 11.168 13.5146 11.168C13.6258 11.168 13.7389 11.1434 13.846 11.0916C14.2245 10.9083 14.3828 10.4527 14.1995 10.074C13.9502 9.55922 13.8438 9.10596 13.8438 8.55788V7.49167C13.8438 4.66776 11.7128 2.30405 8.9748 1.94421V0.952393C8.9748 0.531662 8.63381 0.190674 8.21308 0.190674C7.79255 0.190674 7.45136 0.531662 7.45136 0.952393V1.95215C4.74865 2.33777 2.65353 4.68799 2.65353 7.49167V8.55788C2.65353 9.489 2.31055 10.0843 1.87614 10.8379C1.44152 11.5923 0.948785 12.4474 0.701028 13.7697C0.580819 14.4108 0.750817 15.0662 1.16718 15.5679C1.58335 16.0691 2.1955 16.3566 2.84673 16.3566H6.06658C6.09376 17.537 7.06178 18.489 8.24859 18.489C9.45246 18.489 10.432 17.5097 10.432 16.3058C10.432 16.3022 10.4314 16.2988 10.4314 16.2955C10.7033 16.1792 10.894 15.9093 10.894 15.5948C10.894 15.1741 10.553 14.8331 10.1323 14.8331H2.84693C2.57755 14.8331 2.41351 14.6838 2.33952 14.5949C2.26553 14.5056 2.14849 14.3162 2.19848 14.0504C2.39843 12.983 2.80389 12.2792 3.19625 11.5984ZM8.24859 16.9655C7.90205 16.9655 7.61759 16.6968 7.59141 16.3566H8.90597C8.87978 16.6968 8.59533 16.9655 8.24859 16.9655Z" fill="white"/>
<path d="M18.1999 14.3001H16.2962V12.3962C16.2962 11.9757 15.955 11.6345 15.5345 11.6345C15.1138 11.6345 14.7728 11.9757 14.7728 12.3962V14.3001H12.8689C12.4482 14.3001 12.1072 14.6411 12.1072 15.0619C12.1072 15.4826 12.4482 15.8236 12.8689 15.8236H14.7728V17.7273C14.7728 18.148 15.1138 18.489 15.5345 18.489C15.955 18.489 16.2962 18.148 16.2962 17.7273V15.8236H18.1999C18.6207 15.8236 18.9617 15.4826 18.9617 15.0619C18.9617 14.6411 18.6207 14.3001 18.1999 14.3001Z" fill="white"/>
</svg>
