<svg xmlns="http://www.w3.org/2000/svg" width="1240" height="1240"><path d="M583.5 76.121c-87.491 6.1-169.612 31.871-244.015 76.576-38.486 23.125-68.392 46.373-101.319 78.766-46.357 45.604-78.832 90.461-107.174 148.037-18.163 36.898-29.987 68.828-39.443 106.521-12.253 48.842-17.286 93.954-16.231 145.479.745 36.383 3.334 61.222 9.795 94 9.475 48.059 24.031 90.719 46.404 136 26.75 54.138 56.734 96.295 99.42 139.783 46.247 47.116 92.961 80.809 151.493 109.264 64.147 31.186 130.199 48.552 203.57 53.523 21.45 1.453 67.596.666 88-1.502 69.321-7.364 130.164-25.113 190.5-55.574 56.018-28.281 96.124-57.402 141.038-102.41 36.394-36.47 60.545-67.61 85.375-110.084 91.028-155.717 98.649-348.693 20.179-511-77.003-159.273-226.572-271.7-400.397-300.969-39.704-6.686-88.194-9.129-127.195-6.41m181.72 236.626c-2.809 7.564-31.25 83.953-63.202 169.753-31.951 85.8-62.852 168.825-68.668 184.5-5.816 15.675-10.875 28.829-11.242 29.23-.368.402-5.681-14.673-11.807-33.5-6.127-18.826-34.825-107.13-63.775-196.23-28.95-89.1-52.847-162.627-53.105-163.393-.82-2.441 3.157-15.855-46.966 158.393-7.91 27.5-20.158 70.025-27.216 94.5l-12.835 44.5-86.702.256-86.702.255V675.5l114.75-.205 114.75-.205 16.739-57.795c9.207-31.787 17.005-58.47 17.329-59.295.524-1.334 25.541 74.682 97.578 296.5 12.146 37.4 22.322 68.399 22.612 68.886.291.488 2.677-4.912 5.303-12 4.299-11.603 64.828-174.123 112.609-302.354 10.138-27.207 18.584-49.62 18.77-49.806.368-.367.512.24 16.409 69.203l10.817 46.928 112.167.394 112.167.393V601h-82.5c-45.375 0-82.5-.188-82.5-.419 0-.23-11.665-50.968-25.923-112.75S784.256 358.4 779.493 337.5c-4.763-20.9-8.774-38.114-8.913-38.253-.139-.139-2.551 5.936-5.36 13.5" fill="undefined" fill-rule="evenodd"/></svg>